<svg width="24" height="24" viewBox="0 0 24 24" fill="none" xmlns="http://www.w3.org/2000/svg">
<g id="Frame 900">
<path id="Vector" d="M16.9832 17.4C15.9437 17.4 15.1103 18.201 15.1103 19.2C15.1103 19.6774 15.3076 20.1352 15.6588 20.4728C16.0101 20.8104 16.4865 21 16.9832 21C17.4799 21 17.9563 20.8104 18.3075 20.4728C18.6588 20.1352 18.8561 19.6774 18.8561 19.2C18.8561 18.7226 18.6588 18.2648 18.3075 17.9272C17.9563 17.5896 17.4799 17.4 16.9832 17.4ZM2 3V4.8H3.8729L7.24411 11.631L5.97054 13.836C5.83008 14.088 5.74579 14.385 5.74579 14.7C5.74579 15.1774 5.94312 15.6352 6.29435 15.9728C6.64559 16.3104 7.12197 16.5 7.61869 16.5H18.8561V14.7H8.012C7.94991 14.7 7.89036 14.6763 7.84646 14.6341C7.80255 14.5919 7.77789 14.5347 7.77789 14.475C7.77789 14.43 7.78725 14.394 7.80598 14.367L8.64879 12.9H15.6253C16.3277 12.9 16.9457 12.522 17.2641 11.973L20.6166 6.15C20.6821 6.006 20.729 5.853 20.729 5.7C20.729 5.46131 20.6303 5.23239 20.4547 5.0636C20.2791 4.89482 20.0409 4.8 19.7925 4.8H5.94245L5.06219 3M7.61869 17.4C6.57923 17.4 5.74579 18.201 5.74579 19.2C5.74579 19.6774 5.94312 20.1352 6.29435 20.4728C6.64559 20.8104 7.12197 21 7.61869 21C8.11542 21 8.59179 20.8104 8.94303 20.4728C9.29427 20.1352 9.49159 19.6774 9.49159 19.2C9.49159 18.7226 9.29427 18.2648 8.94303 17.9272C8.59179 17.5896 8.11542 17.4 7.61869 17.4Z" fill="#FFF9F5"/>
</g>
</svg>
