<svg width="24" height="24" viewBox="0 0 24 24" fill="none" xmlns="http://www.w3.org/2000/svg">
<g id="Frame 899">
<path id="Vector" d="M15.2394 11.325L14.3966 12.153C13.7223 12.801 13.3009 13.35 13.3009 14.7H11.428V14.25C11.428 13.251 11.8494 12.351 12.5237 11.703L13.6849 10.569C14.0314 10.245 14.2374 9.795 14.2374 9.3C14.2374 8.82261 14.0401 8.36477 13.6888 8.02721C13.3376 7.68964 12.8612 7.5 12.3645 7.5C11.8678 7.5 11.3914 7.68964 11.0401 8.02721C10.6889 8.36477 10.4916 8.82261 10.4916 9.3H8.61869C8.61869 8.34522 9.01334 7.42955 9.71581 6.75442C10.4183 6.07928 11.371 5.7 12.3645 5.7C13.3579 5.7 14.3107 6.07928 15.0132 6.75442C15.7156 7.42955 16.1103 8.34522 16.1103 9.3C16.1089 10.0589 15.796 10.7866 15.2394 11.325ZM13.3009 18.3H11.428V16.5H13.3009M12.3645 3C11.1347 3 9.917 3.23279 8.78085 3.68508C7.6447 4.13738 6.61237 4.80031 5.74279 5.63604C3.98661 7.32387 3 9.61305 3 12C3 14.3869 3.98661 16.6761 5.74279 18.364C6.61237 19.1997 7.6447 19.8626 8.78085 20.3149C9.917 20.7672 11.1347 21 12.3645 21C14.8481 21 17.23 20.0518 18.9862 18.364C20.7424 16.6761 21.729 14.3869 21.729 12C21.729 7.023 17.515 3 12.3645 3Z" fill="#FFF9F5"/>
</g>
</svg>
