<svg width="112" height="42" viewBox="0 0 112 42" fill="none" xmlns="http://www.w3.org/2000/svg">
<g id="Frame 904">
<g id="Group">
<path id="Vector" d="M60.9889 20.5332V35.5646C60.9889 35.8456 60.9203 36.0563 60.806 36.1968C60.6917 36.3373 60.463 36.4075 60.1201 36.4075H54.7699C54.6327 36.4075 54.5184 36.3841 54.4041 36.3607H54.3812C54.3812 36.3607 54.3584 36.3607 54.3584 36.3373C54.3126 36.3139 54.244 36.2905 54.2212 36.2436C53.6039 35.8924 51.7062 34.6749 51.569 33.2935C51.5918 33.4574 51.6604 33.5979 51.7519 33.715C51.8891 33.8789 52.0948 33.9491 52.3921 33.9491H57.7422C58.0623 33.9491 58.291 33.8789 58.4281 33.7384C58.5653 33.5979 58.611 33.3872 58.611 33.1062V16.506C59.4113 17.864 60.1887 19.1986 60.9889 20.5332Z" fill="#FFF9F5"/>
<path id="Vector_2" d="M78.6398 8.56891V35.6818C78.6398 35.9393 78.5712 36.1266 78.4112 36.2437C78.274 36.3607 78.0454 36.431 77.7938 36.431H71.7806C71.6206 36.431 71.4606 36.3842 71.3462 36.2671C71.2548 36.1734 69.6314 34.5345 68.9684 33.8321C69.1056 33.9492 69.2428 33.996 69.4028 33.996H75.416C75.6904 33.996 75.8962 33.9257 76.0333 33.8087C76.1705 33.6916 76.262 33.5043 76.262 33.2467V6.1339C76.262 5.87635 76.1705 5.66563 76.0105 5.50174C75.8504 5.36125 75.6446 5.29102 75.3931 5.29102H75.4389C76.8793 5.29102 78.1825 7.49188 78.5026 8.07722C78.5026 8.10064 78.5255 8.10064 78.5255 8.10064C78.5484 8.12405 78.5484 8.14747 78.5712 8.17088C78.5712 8.17088 78.5712 8.17088 78.5712 8.19429C78.5712 8.2177 78.5941 8.2177 78.5941 8.2177V8.24112C78.6169 8.31136 78.6398 8.42843 78.6398 8.56891Z" fill="#FFF9F5"/>
<path id="Vector_3" d="M5.56685 33.5043C5.52112 33.3872 5.52112 33.317 5.52112 33.317H5.54398C5.54398 33.3638 5.54398 33.434 5.56685 33.5043Z" fill="#FFF9F5"/>
<path id="Vector_4" d="M12.0373 5.31441C12.0145 5.31441 11.9916 5.29099 11.9688 5.29099V5.26758C11.9688 5.26758 11.9916 5.29099 12.0373 5.31441Z" fill="#FFF9F5"/>
<path id="Vector_5" d="M15.1011 8.17088C15.0554 8.07723 14.9868 8.00699 14.8953 7.93675C14.6895 7.77285 14.4838 7.70261 14.278 7.70261H8.72206C8.4477 7.70261 8.24192 7.77285 8.10474 7.96015C7.96755 8.12405 7.89896 8.33477 7.89896 8.54549V35.5647C7.89896 35.7754 7.94469 35.9627 8.01328 36.0798C8.05901 36.15 8.10474 36.1968 8.15047 36.2203C6.2299 35.1432 5.70403 33.9491 5.56685 33.5043V33.4809C5.54398 33.434 5.54398 33.3638 5.54398 33.2936C5.54398 33.2233 5.52112 33.1765 5.52112 33.1063V6.1339C5.52112 5.89977 5.58971 5.71246 5.72689 5.54857C5.86408 5.38467 6.06985 5.29102 6.34422 5.29102H11.9001C11.923 5.29102 11.9459 5.31443 11.9687 5.31443C11.9916 5.31443 12.0145 5.31443 12.0373 5.33785C12.0602 5.33785 12.0831 5.36126 12.1059 5.36126C12.1516 5.38467 12.1974 5.38467 12.2431 5.40808C12.8604 5.59539 14.3237 6.32121 15.1011 8.17088Z" fill="#FFF9F5"/>
<path id="Vector_6" d="M58.6339 5.26758H58.6796C58.6568 5.29099 58.6568 5.26758 58.6339 5.26758Z" fill="#FFF9F5"/>
<path id="Vector_7" d="M59.0912 5.40808C59.2741 5.50174 59.4341 5.64222 59.5713 5.87635C61.1718 8.52208 62.7494 11.121 64.327 13.6965C65.9046 16.2485 67.5051 18.8709 69.1055 21.4932V20.0415V18.824C68.3053 17.5129 67.5051 16.2017 66.7048 14.914C65.1272 12.3385 63.5496 9.73958 61.9491 7.09386C61.8348 6.88314 60.9431 5.64222 58.6567 5.29102C58.7482 5.31443 58.8396 5.33785 58.9311 5.36126C58.9997 5.36126 59.0454 5.38467 59.0912 5.40808Z" fill="#FFF9F5"/>
<path id="Vector_8" d="M102.601 27.3465C103.173 27.3465 103.447 27.6509 103.447 28.2362V33.1062C103.447 33.2233 103.401 33.3403 103.287 33.4574C103.241 33.8086 102.99 33.9959 102.51 33.9959H83.4184C83.1669 33.9959 82.9612 33.9257 82.824 33.7852C82.6868 33.6681 82.6411 33.4808 82.6182 33.2701L82.5953 33.434C82.8468 35.4007 85.3161 36.4309 85.7963 36.4309H104.91C105.368 36.4309 105.642 36.2436 105.688 35.8924C105.779 35.7988 105.848 35.6817 105.848 35.5412V30.6712C105.825 29.7347 104.133 27.3231 102.601 27.3465Z" fill="#FFF9F5"/>
<path id="Vector_9" d="M103.036 6.2041V10.9805C103.036 11.1912 102.967 11.4019 102.807 11.6126C102.647 11.8233 102.441 11.917 102.144 11.917H89.9117V16.7168H92.2896V14.352H104.522C104.819 14.352 105.025 14.2583 105.185 14.0476C105.345 13.8369 105.413 13.6496 105.413 13.4155V8.63911C105.368 7.60892 103.95 5.43146 102.418 5.31439C102.418 5.31439 102.395 5.31439 102.35 5.31439C102.533 5.33781 102.693 5.40804 102.807 5.52511C102.967 5.68901 103.036 5.92314 103.036 6.2041Z" fill="#FFF9F5"/>
<path id="Vector_10" d="M100.178 17.466V21.6336C100.178 21.8209 100.109 21.9848 99.9719 22.1487C99.8347 22.3126 99.6289 22.4063 99.3774 22.4063H89.9117V27.3465H92.2896V24.8413H101.755C102.03 24.8413 102.213 24.7476 102.35 24.5837C102.487 24.4198 102.555 24.2325 102.555 24.0686V19.901C102.555 19.222 101.984 17.068 99.6975 16.7636C99.789 16.787 99.8804 16.8339 99.949 16.8807C100.109 16.9977 100.178 17.1851 100.178 17.466Z" fill="#FFF9F5"/>
<path id="Vector_11" d="M59.5942 5.87635C59.457 5.66563 59.297 5.50174 59.1141 5.40808C59.0683 5.38467 59.0226 5.36126 58.9769 5.36126C58.8854 5.31443 58.794 5.29102 58.7025 5.29102C58.8626 5.38467 59.457 5.66563 59.5942 5.87635Z" fill="#FFF9F5"/>
<path id="Vector_12" d="M15.0781 8.17084C15.101 8.24108 15.1467 8.31132 15.1696 8.38156C15.1696 8.31132 15.1239 8.24108 15.0781 8.17084Z" fill="#FFF9F5"/>
<path id="Vector_13" d="M8.35629 36.3607C8.28769 36.3139 8.2191 36.2905 8.15051 36.2437C8.19624 36.2905 8.26483 36.3373 8.35629 36.3607Z" fill="#FFF9F5"/>
<path id="Vector_14" d="M39.3596 19.6434C39.3596 20.7205 39.1767 21.7038 38.8338 22.6404C38.4908 23.5769 37.9878 24.373 37.3476 25.0754C36.7074 25.7544 35.9529 26.3163 35.0841 26.6909C34.2153 27.0889 33.255 27.2762 32.2032 27.2762C31.1515 27.2762 30.2141 27.0889 29.3452 26.6909C29.0709 26.5738 28.8194 26.4334 28.5679 26.2695C28.8194 26.7143 29.1395 27.1358 29.4824 27.5104C30.1226 28.1894 30.8771 28.7513 31.746 29.1259C32.6148 29.5239 33.5751 29.7113 34.6039 29.7113C35.6557 29.7113 36.616 29.5239 37.4848 29.1259C38.3536 28.7279 39.1081 28.1894 39.7483 27.5104C40.3885 26.8314 40.8686 26.0119 41.2345 25.0754C41.5774 24.1388 41.7603 23.1555 41.7603 22.0785C41.7603 21.0248 41.5774 20.0181 41.2345 19.0815C40.8915 18.145 40.3885 17.3255 39.7483 16.6465C39.3139 16.1548 38.8109 15.7568 38.2622 15.429C38.4908 15.827 38.6966 16.2251 38.8566 16.6699C39.1996 17.5831 39.3596 18.5898 39.3596 19.6434Z" fill="#FFF9F5"/>
<path id="Vector_15" d="M20.6799 26.0354C20.337 24.771 20.1769 23.4599 20.1769 22.1019C20.1769 20.7439 20.337 19.4327 20.6799 18.1684C21.0229 16.9041 21.503 15.7334 22.1432 14.633C22.7834 13.5325 23.515 12.5258 24.4067 11.636C25.2756 10.7229 26.2587 9.97369 27.3333 9.31811C28.4079 8.68595 29.5511 8.19427 30.7858 7.81965C32.0204 7.46845 33.3008 7.28113 34.6269 7.28113C35.953 7.28113 37.2334 7.46845 38.468 7.81965C39.7027 8.17085 40.8459 8.66253 41.9205 9.31811C42.5149 9.66931 43.0637 10.0673 43.5895 10.4888C43.2466 10.0439 42.8808 9.59907 42.4692 9.20104C41.5775 8.28792 40.6172 7.53869 39.5426 6.88311C38.468 6.25094 37.3248 5.75925 36.0902 5.38464C34.8555 5.03344 33.5752 4.84613 32.2491 4.84613C30.9229 4.84613 29.6426 5.03344 28.4079 5.38464C27.1733 5.73584 26.0301 6.22753 24.9555 6.88311C23.8809 7.51527 22.9206 8.28792 22.0289 9.20104C21.1601 10.1142 20.4056 11.0975 19.7654 12.198C19.1252 13.2984 18.645 14.4691 18.3021 15.7334C17.9591 16.9977 17.7991 18.3089 17.7991 19.6669C17.7991 21.0249 17.9591 22.336 18.3021 23.6004C18.645 24.8647 19.1252 26.0354 19.7654 27.1124C20.4056 28.2128 21.1372 29.1962 22.0289 30.0859C22.4176 30.4839 22.852 30.8585 23.2864 31.2097C22.8749 30.6712 22.4862 30.1093 22.1661 29.524C21.503 28.4704 21.0229 27.2763 20.6799 26.0354Z" fill="#FFF9F5"/>
</g>
</g>
</svg>
