<svg width="24" height="24" viewBox="0 0 24 24" fill="none" xmlns="http://www.w3.org/2000/svg">
<g id="Frame 901">
<g id="Vector">
<path fill-rule="evenodd" clip-rule="evenodd" d="M12 2C6.477 2 2 6.477 2 12C2 17.523 6.477 22 12 22C17.523 22 22 17.523 22 12C22 6.477 17.523 2 12 2ZM12 11.4444C8.89295 11.4444 6.375 13.1244 6.375 14.8472C6.375 16.57 8.89295 18.25 12 18.25C15.107 18.25 17.625 16.57 17.625 14.8472C17.625 13.1244 15.107 11.4444 12 11.4444ZM14.1695 10.1041C13.5941 10.651 12.8137 10.9583 12 10.9583C11.1863 10.9583 10.4059 10.651 9.83047 10.1041C9.25507 9.55708 8.93182 8.81521 8.93182 8.04167C8.93182 7.26812 9.25507 6.52625 9.83047 5.97927C10.4059 5.43229 11.1863 5.125 12 5.125C12.8137 5.125 13.5941 5.43229 14.1695 5.97927C14.7449 6.52625 15.0682 7.26812 15.0682 8.04167C15.0682 8.81521 14.7449 9.55708 14.1695 10.1041Z" fill="#FFF9F5"/>
</g>
</g>
</svg>
