<svg width="24" height="24" viewBox="0 0 24 24" fill="none" xmlns="http://www.w3.org/2000/svg">
<g id="Frame 898">
<path id="Vector" d="M15.6418 14.6918H14.8429L14.5597 14.4294C15.5851 13.2864 16.1486 11.8271 16.1475 10.3179C16.1475 9.06834 15.762 7.84684 15.0396 6.80786C14.3173 5.76889 13.2906 4.95911 12.0894 4.48092C10.8882 4.00274 9.56647 3.87762 8.29129 4.1214C7.0161 4.36518 5.84477 4.9669 4.92541 5.85047C4.00606 6.73404 3.37997 7.85979 3.12632 9.08534C2.87267 10.3109 3.00285 11.5812 3.5004 12.7357C3.99795 13.8901 4.84053 14.8768 5.92158 15.571C7.00263 16.2653 8.2736 16.6358 9.57376 16.6358C11.202 16.6358 12.6988 16.0623 13.8518 15.1098L14.1248 15.3819V16.1498L19.1816 21L20.6885 19.5517L15.6418 14.6918ZM9.57376 14.6918C7.05551 14.6918 5.0227 12.7381 5.0227 10.3179C5.0227 7.89766 7.05551 5.94397 9.57376 5.94397C12.092 5.94397 14.1248 7.89766 14.1248 10.3179C14.1248 12.7381 12.092 14.6918 9.57376 14.6918Z" fill="#FFF9F5"/>
</g>
</svg>
