<svg width="26" height="19" viewBox="0 0 26 19" fill="none" xmlns="http://www.w3.org/2000/svg">
<rect width="26" height="19" fill="#F5F5F5"/>
<g clip-path="url(#clip0_0_1)">
<rect width="1440" height="4800" transform="translate(-606 -4730)" fill="white"/>
<rect x="-606" y="-730" width="1440" height="800" fill="black"/>
<mask id="mask0_0_1" style="mask-type:luminance" maskUnits="userSpaceOnUse" x="0" y="0" width="26" height="19">
<path d="M24.1429 0H1.85714C0.831471 0 0 0.831471 0 1.85714V16.7143C0 17.74 0.831471 18.5714 1.85714 18.5714H24.1429C25.1685 18.5714 26 17.74 26 16.7143V1.85714C26 0.831471 25.1685 0 24.1429 0Z" fill="white"/>
</mask>
<g mask="url(#mask0_0_1)">
<path d="M24.1429 0H1.85714C0.831471 0 0 0.831471 0 1.85714V16.7143C0 17.74 0.831471 18.5714 1.85714 18.5714H24.1429C25.1685 18.5714 26 17.74 26 16.7143V1.85714C26 0.831471 25.1685 0 24.1429 0Z" fill="white"/>
<mask id="mask1_0_1" style="mask-type:alpha" maskUnits="userSpaceOnUse" x="0" y="0" width="26" height="19">
<path d="M24.1429 0H1.85714C0.831471 0 0 0.831471 0 1.85714V16.7143C0 17.74 0.831471 18.5714 1.85714 18.5714H24.1429C25.1685 18.5714 26 17.74 26 16.7143V1.85714C26 0.831471 25.1685 0 24.1429 0Z" fill="white"/>
</mask>
<g mask="url(#mask1_0_1)">
<path fill-rule="evenodd" clip-rule="evenodd" d="M26 0H0V1.23809H26V0ZM26 2.47619H0V3.71429H26V2.47619ZM0 4.95238H26V6.19048H0V4.95238ZM26 7.42857H0V8.66666H26V7.42857ZM0 9.90479H26V11.1429H0V9.90479ZM26 12.3809H0V13.6191H26V12.3809ZM0 14.8571H26V16.0952H0V14.8571ZM26 17.3334H0V18.5714H26V17.3334Z" fill="#D02F44"/>
<path d="M11.1429 0H0V8.66666H11.1429V0Z" fill="#46467F"/>
<g filter="url(#filter0_d_0_1)">
<path fill-rule="evenodd" clip-rule="evenodd" d="M2.47614 1.85708C2.47614 2.19897 2.19898 2.47613 1.85709 2.47613C1.5152 2.47613 1.23804 2.19897 1.23804 1.85708C1.23804 1.5152 1.5152 1.23804 1.85709 1.23804C2.19898 1.23804 2.47614 1.5152 2.47614 1.85708ZM4.95232 1.85708C4.95232 2.19897 4.67517 2.47613 4.33328 2.47613C3.99139 2.47613 3.71423 2.19897 3.71423 1.85708C3.71423 1.5152 3.99139 1.23804 4.33328 1.23804C4.67517 1.23804 4.95232 1.5152 4.95232 1.85708ZM6.80947 2.47613C7.15136 2.47613 7.42852 2.19897 7.42852 1.85708C7.42852 1.5152 7.15136 1.23804 6.80947 1.23804C6.46758 1.23804 6.19042 1.5152 6.19042 1.85708C6.19042 2.19897 6.46758 2.47613 6.80947 2.47613ZM9.90466 1.85708C9.90466 2.19897 9.62758 2.47613 9.28566 2.47613C8.94377 2.47613 8.66661 2.19897 8.66661 1.85708C8.66661 1.5152 8.94377 1.23804 9.28566 1.23804C9.62758 1.23804 9.90466 1.5152 9.90466 1.85708ZM3.09518 3.71422C3.43707 3.71422 3.71423 3.43707 3.71423 3.09518C3.71423 2.75329 3.43707 2.47613 3.09518 2.47613C2.75329 2.47613 2.47614 2.75329 2.47614 3.09518C2.47614 3.43707 2.75329 3.71422 3.09518 3.71422ZM6.19042 3.09518C6.19042 3.43707 5.91326 3.71422 5.57137 3.71422C5.22948 3.71422 4.95232 3.43707 4.95232 3.09518C4.95232 2.75329 5.22948 2.47613 5.57137 2.47613C5.91326 2.47613 6.19042 2.75329 6.19042 3.09518ZM8.04757 3.71422C8.38946 3.71422 8.66661 3.43707 8.66661 3.09518C8.66661 2.75329 8.38946 2.47613 8.04757 2.47613C7.70568 2.47613 7.42852 2.75329 7.42852 3.09518C7.42852 3.43707 7.70568 3.71422 8.04757 3.71422ZM9.90466 4.33327C9.90466 4.67516 9.62758 4.95232 9.28566 4.95232C8.94377 4.95232 8.66661 4.67516 8.66661 4.33327C8.66661 3.99138 8.94377 3.71422 9.28566 3.71422C9.62758 3.71422 9.90466 3.99138 9.90466 4.33327ZM6.80947 4.95232C7.15136 4.95232 7.42852 4.67516 7.42852 4.33327C7.42852 3.99138 7.15136 3.71422 6.80947 3.71422C6.46758 3.71422 6.19042 3.99138 6.19042 4.33327C6.19042 4.67516 6.46758 4.95232 6.80947 4.95232ZM4.95232 4.33327C4.95232 4.67516 4.67517 4.95232 4.33328 4.95232C3.99139 4.95232 3.71423 4.67516 3.71423 4.33327C3.71423 3.99138 3.99139 3.71422 4.33328 3.71422C4.67517 3.71422 4.95232 3.99138 4.95232 4.33327ZM1.85709 4.95232C2.19898 4.95232 2.47614 4.67516 2.47614 4.33327C2.47614 3.99138 2.19898 3.71422 1.85709 3.71422C1.5152 3.71422 1.23804 3.99138 1.23804 4.33327C1.23804 4.67516 1.5152 4.95232 1.85709 4.95232ZM3.71423 5.57136C3.71423 5.91326 3.43707 6.19041 3.09518 6.19041C2.75329 6.19041 2.47614 5.91326 2.47614 5.57136C2.47614 5.22947 2.75329 4.95232 3.09518 4.95232C3.43707 4.95232 3.71423 5.22947 3.71423 5.57136ZM5.57137 6.19041C5.91326 6.19041 6.19042 5.91326 6.19042 5.57136C6.19042 5.22947 5.91326 4.95232 5.57137 4.95232C5.22948 4.95232 4.95232 5.22947 4.95232 5.57136C4.95232 5.91326 5.22948 6.19041 5.57137 6.19041ZM8.66661 5.57136C8.66661 5.91326 8.38946 6.19041 8.04757 6.19041C7.70568 6.19041 7.42852 5.91326 7.42852 5.57136C7.42852 5.22947 7.70568 4.95232 8.04757 4.95232C8.38946 4.95232 8.66661 5.22947 8.66661 5.57136ZM9.28566 7.42852C9.62758 7.42852 9.90466 7.15136 9.90466 6.80947C9.90466 6.46757 9.62758 6.19041 9.28566 6.19041C8.94377 6.19041 8.66661 6.46757 8.66661 6.80947C8.66661 7.15136 8.94377 7.42852 9.28566 7.42852ZM7.42852 6.80947C7.42852 7.15136 7.15136 7.42852 6.80947 7.42852C6.46758 7.42852 6.19042 7.15136 6.19042 6.80947C6.19042 6.46757 6.46758 6.19041 6.80947 6.19041C7.15136 6.19041 7.42852 6.46757 7.42852 6.80947ZM4.33328 7.42852C4.67517 7.42852 4.95232 7.15136 4.95232 6.80947C4.95232 6.46757 4.67517 6.19041 4.33328 6.19041C3.99139 6.19041 3.71423 6.46757 3.71423 6.80947C3.71423 7.15136 3.99139 7.42852 4.33328 7.42852ZM2.47614 6.80947C2.47614 7.15136 2.19898 7.42852 1.85709 7.42852C1.5152 7.42852 1.23804 7.15136 1.23804 6.80947C1.23804 6.46757 1.5152 6.19041 1.85709 6.19041C2.19898 6.19041 2.47614 6.46757 2.47614 6.80947Z" fill="url(#paint0_linear_0_1)"/>
</g>
</g>
</g>
</g>
<defs>
<filter id="filter0_d_0_1" x="1.23804" y="1.23804" width="8.66663" height="34.7619" filterUnits="userSpaceOnUse" color-interpolation-filters="sRGB">
<feFlood flood-opacity="0" result="BackgroundImageFix"/>
<feColorMatrix in="SourceAlpha" type="matrix" values="0 0 0 0 0 0 0 0 0 0 0 0 0 0 0 0 0 0 127 0" result="hardAlpha"/>
<feOffset dy="28.5714"/>
<feColorMatrix type="matrix" values="0 0 0 0 0 0 0 0 0 0 0 0 0 0 0 0 0 0 0.06 0"/>
<feBlend mode="normal" in2="BackgroundImageFix" result="effect1_dropShadow_0_1"/>
<feBlend mode="normal" in="SourceGraphic" in2="effect1_dropShadow_0_1" result="shape"/>
</filter>
<linearGradient id="paint0_linear_0_1" x1="1.23804" y1="1.23804" x2="1.23804" y2="7.42851" gradientUnits="userSpaceOnUse">
<stop stop-color="white"/>
<stop offset="1" stop-color="#F0F0F0"/>
</linearGradient>
<clipPath id="clip0_0_1">
<rect width="1440" height="4800" fill="white" transform="translate(-606 -4730)"/>
</clipPath>
</defs>
</svg>
